<svg height="20" viewBox="0 0 16 20" width="16" xmlns="http://www.w3.org/2000/svg" xmlns:xlink="http://www.w3.org/1999/xlink"><mask id="a" fill="#fff"><path d="m0 0h14.8960217v19.9643123h-14.8960217z" fill="#fff" fill-rule="evenodd"/></mask><mask id="b" fill="#fff"><path d="m0 0h14.8960217v19.9643123h-14.8960217z" fill="#fff" fill-rule="evenodd"/></mask><g fill="none" fill-rule="evenodd" transform="translate(.5295 .0312)"><path d="m.62832714 4.74349443c.05762082 1.2240892 3.08951672 2.19434943 6.81739777 2.1730855 3.25576209-.01858737 5.97167289-.7875093 6.63695169-1.79769517-.1515985-.16847583-.3609666-.28401488-.596803-.31531598.0025279-.0297398.0041636-.05970262.0040149-.09011152-.0027509-.48408923-.3578439-.88275095-.8205205-.95710038.0121933-.06260222.0185874-.1273606.0182156-.19360595-.0030483-.5391078-.4426022-.97360595-.98171-.97055762-.0121933.00007435-.0240892.00156135-.0362082.00208177.0344982-.10081782.053829-.20855017.0532342-.32104088-.0031226-.53910781-.4426022-.97360595-.98171-.97055762-.1237175.00074349-.2414126.02535316-.3501115.06795539-.1542008-.29026022-.45026027-.49256506-.79546472-.51591078-.0601487-.48408922-.4736803-.85754647-.9735316-.85475286-.3145725.00181606-.5927881.15289412-.76996282.38493873-.1797026-.19553903-.43724908-.31821561-.72371748-.31657992-.5391078.00304832-.97360595.44260223-.97055762.98163568.0005948.10297398.01732342.20193309.0473606.29494424-.22.04081785-.41345725.15516729-.55486988.31672863-.11226767-.41814127-.49405205-.72542751-.9473606-.72289963-.42349442.00245353-.78141265.27472119-.91434945.65249071-.35977695.14550185-.61301115.49843866-.61063197.91011151.00052045.09144983.01449815.17947955.03851302.26334573-.1213383-.0530855-.25509295-.08282528-.39605947-.08200743-.42505578.00245353-.78408923.27665428-.91591079.65665428-.12639406-.05873608-.2669145-.09211898-.41553904-.09122678-.5391078.00304833-.97368029.44252788-.97059089.9816357.00099981.1777695.0502935.34371748.13415967.4867658-.00855019.00862453-.01605948.0180669-.02423792.02698885" fill="#f9d320" mask="url(#a)"/><path d="m12.7389591 17.0081784c-.2865427.4351673-.8433457.8857993-1.4260966 1.1862454l.9962081-10.10431227c.633829-.20364312 1.252342-.47345725 1.7079554-.86037175zm-2.4174721 1.6077324c-.96468402.3192565-1.52557622.4182156-2.32855019.497026l.1251301-10.38334572c.8870632-.02542752 2.03501859-.14565057 3.01315989-.3544238zm-5.75137547 0-.80966542-10.24074352c.9780669.20877323 2.1260223.32899628 3.0130855.3544238l.1251301 10.38334572c-.80297398-.0788104-1.36379183-.1777695-2.32855018-.497026zm-2.41739778-1.6077324-1.27814126-9.77843862c.45561338.3869145 1.0741264.65672863 1.70795539.86037175l.99620818 10.10431227c-.58275093-.3004461-1.1395539-.7510781-1.42602231-1.1862454zm10.51479555-13.63665424c.0126394.06171005.0197026.12550187.0200743.19100372.0003718.06624535-.0060223.13100373-.0182899.19360595.4627509.0742751.8178439.4729368.8205948.95710038.0001487.03033457-.001487.06037175-.0040149.09003717.2358364.0313011.4452045.14684015.596803.31531598-.6652045 1.01026022-3.3811896 1.77918215-6.63687734 1.79784387-3.72788105.02133828-6.75977695-.9488476-6.81747212-2.17301115.00817844-.0088476.01568773-.01836432.02423792-.0269145-.05754647-.09814127-.09724907-.2075093-.11776952-.32356877-.35695167.3388104-.5729368.61197025-.53494424 1.00973977.00364312.05315985 1.57918216 11.33382902 1.57918216 11.33382902.18178438 1.7866171 2.77620817 3.2145725 5.8667658 3.2322676 3.09055764-.0176951 5.68505574-1.4456505 5.86676584-3.2322676 0 0 1.575539-11.28066917 1.5791821-11.33382902.0754647-.79561337-.8554647-1.51784387-2.2242379-2.03115242z" fill="#db382a" fill-rule="nonzero" mask="url(#b)"/><g fill="#fffffe"><path d="m3.76044611 8.37516728.80966542 10.24074352c.96475835.3192565 1.5255762.4182156 2.32855018.497026l-.1251301-10.38334572c-.8870632-.02542752-2.0350186-.14565057-3.0130855-.3544238"/><path d="m7.99293681 19.1129368c.80297397-.0788104 1.36379182-.1777695 2.32855019-.497026l.8096654-10.24074352c-.9780669.20877323-2.12602229.32899628-3.01308549.3544238z"/><path d="m11.3128625 18.1944238c.5827509-.3004461 1.1395539-.7510781 1.4260223-1.1862454l1.2781412-9.77843862c-.4556134.3869145-1.0741264.65672863-1.7079554.86037175z"/><path d="m.87457249 7.22973978 1.27806692 9.77843862c.28654275.4351673.84334572.8857993 1.42609665 1.1862454l-.99620818-10.10431227c-.63382899-.20364312-1.25234201-.47345725-1.70795539-.86037175"/></g></g></svg>