<svg height="20" viewBox="0 0 20 20" width="20" xmlns="http://www.w3.org/2000/svg"><path d="m384.005478 16.7379069v3.3061077s.093864 1.5157339 1.592216.7300553c1.498351-.7856786 3.041897-1.5678807 3.041897-1.5678807s.43108-.2537811 0-.4832271c-.43108-.2294459-4.251703-2.2179776-4.251703-2.2179776-.052265-.0197294-.107537-.0303133-.163393-.0312881-.104294 0-.222494.0486704-.222494.2607341m5.131246-2.3292242c.027812.7648199 0 3.7962877 0 3.7962877s-.10777.8100138.632715.451939c.740485-.3580747 3.194861-1.6617449 3.747617-1.9468142.747438-.3858863 0-.7404846 0-.7404846l-3.737188-1.9607201c-.099059-.0517904-.208186-.0814445-.319833-.0869113-.16687 0-.347646.0973407-.319834.4867035m5.11734-2.603864c.031288.7648199 0 3.7962877 0 3.7962877s-.104294.8100138.632715.451939c.737008-.3580747 3.198337-1.6617449 3.747617-1.9468142.747438-.3893628 0-.7439611 0-.7439611l-3.740664-1.9572436c-.099608-.0493779-.208708-.076653-.319834-.0799584-.16687 0-.347646.0973407-.319834.4867036m-10.248586-.1042937c.027812.7648199 0 3.7962877 0 3.7962877s-.10777.8100138.632715.451939c.740484-.3580747 3.194861-1.6617449 3.747617-1.9468142.747437-.3858863 0-.7439611 0-.7439611l-3.740665-1.96072c-.097964-.0514104-.205877-.0810566-.316357-.0869114-.16687 0-.347645.0973407-.319834.4867036m5.134723-2.60038755c.031288.76481986 0 3.79628765 0 3.79628765s-.10777.8100138.632714.451939c.740485-.3580747 3.198338-1.6582685 3.747618-1.9468142.747437-.3858863 0-.7439611 0-.7439611l-3.744141-1.95724355c-.098005-.05130845-.205895-.08094851-.316357-.08691135-.16687 0-.347646.09386425-.319834.48670355m10.23468-.10081717v4.06049822s-.055623.5944736.483227.3198337l3.128809-1.6130746c1.449681-.7474376 0-1.4740165 0-1.4740165l-3.128809-1.62698039c-.069886-.04104271-.148532-.06487486-.229446-.06952908-.278116 0-.243351.42065092-.243351.42065092m-15.383309-2.56214654c.038241.77872568 0 3.82409929 0 3.82409929s-.10777.8100138.632715.451939c.740484-.3580747 3.198337-1.66174494 3.747617-1.94681416.747437-.38936284 0-.74396114 0-.74396114l-3.737188-1.97462583c-.099059-.05179043-.208187-.08144457-.319834-.08691135-.16687 0-.347645.09386426-.319834.48670355m10.24511-.10429362c.031288.76481987 0 3.79628765 0 3.79628765s-.10777.8169667.629238.4693213 3.194861-1.6582685 3.747618-1.94681418c.747437-.38588638 0-.74396114 0-.74396114l-3.737188-1.97462583c-.098005-.05130845-.205895-.08094851-.316358-.08691135-.166869 0-.347645.09386426-.319833.48670355m-5.120817-2.61429335c.031288.76481987 0 3.79628769 0 3.79628769s-.10777.81001376.632715.45193901c.740484-.35807476 3.198337-1.66174498 3.747617-1.9468142.747437-.38588639 0-.74396114 0-.74396114l-3.740665-1.95724356c-.099059-.05179043-.208186-.08144457-.319833-.08691135-.16687 0-.347646.09734071-.319834.48670355m-5.110387-1.78689732v3.30610769c0 .38936284.385886.22944596.385886.22944596l4.251703-2.22145406c.43108-.22944596 0-.4832271 0-.4832271s-1.543545-.78220213-3.041897-1.56440426c-.229888-.13430654-.488523-.21177795-.754391-.22596951-.775249 0-.834348.95602483-.834348.95602483" fill="#fbc500" fill-rule="evenodd" transform="translate(-384 -1)"/></svg>