<svg height="20" viewBox="0 0 20 20" width="20" xmlns="http://www.w3.org/2000/svg" xmlns:xlink="http://www.w3.org/1999/xlink"><radialGradient id="a" cx="100.958333%" cy="-1.979167%" r="135.083333%"><stop offset="0" stop-color="#9f42c6"/><stop offset=".27" stop-color="#a041c3"/><stop offset=".42" stop-color="#a43ebb"/><stop offset=".53" stop-color="#aa39ad"/><stop offset=".64" stop-color="#b4339a"/><stop offset=".73" stop-color="#c02b81"/><stop offset=".82" stop-color="#cf2061"/><stop offset=".9" stop-color="#e1143c"/><stop offset=".97" stop-color="#f50613"/><stop offset="1" stop-color="#f00"/></radialGradient><g fill="none" fill-rule="evenodd"><path d="m20 4.69166667v10.61250003c0 2.5916666-2.1041667 4.6958333-4.6958333 4.6958333h-10.61250003c-2.59166667 0-4.69166667-2.1041667-4.69166667-4.6958333v-10.61250003c0-2.59166667 2.1-4.69166667 4.69166667-4.69166667h10.61250003c1.3833333 0 2.625.59583333 3.4875 1.55.1958333.21666667.3708333.45.5208333.7.075.12083333.1416667.24583333.2083333.37083333.1375.28333334.25.57916667.3291667.89166667.0416667.15416667.075.31666667.0958333.47916667.0375.225.0541667.4625.0541667.7z" fill="url(#a)"/><path d="m3.75833333 5.9375 3.3 3.3.6125-.6125-3.3-3.3zm5.99583334 6 .61250003-.6083333-.90000003-.9 8.46666663-8.4666667c-.0791666-.3125-.1916666-.60833333-.3291666-.89166667l-9.35833337 9.35833337zm-6.2875-5.70833333-.60833334.60833333 6 6 .60833334-.6125-1.8-1.7958333 9.72916663-9.7291667c-.15-.25-.325-.48333333-.5208333-.7l-9.81666667 9.81666667zm14.56250003-3.7875-7.9875 7.98750003.6125.6083333 7.4291666-7.42916667v-.46666666c0-.2375-.0166666-.475-.0541666-.7zm-9.46250003 5.2875-3.3-3.3-.6125.6125 3.3 3.3zm6.73333333 5.35416663c0 1.425-1.1583333 2.5833334-2.5833333 2.5833334h-9.2666667c-1.425 0-2.58333333-1.1583334-2.58333333-2.5833334v-9.26666663c0-1.425 1.15833333-2.5875 2.58333333-2.5875h8.6583333v-.8625h-8.6583333c-1.9 0-3.45 1.54583333-3.45 3.45v9.26666663c0 1.9 1.54583333 3.45 3.45 3.45h9.2666667c1.9 0 3.45-1.5458333 3.45-3.45v-1.4625h-.8625v1.4625z" fill="#fff" fill-rule="nonzero" transform="translate(1.9167 1.55)"/></g></svg>