<svg height="20" viewBox="0 0 40 20" width="40" xmlns="http://www.w3.org/2000/svg"><g fill="none" fill-rule="evenodd"><rect fill="#f5c518" height="20" rx="4" width="40"/><g fill="#000" transform="translate(5 4.375)"><path d="m0 11.25h3.125v-11.25h-3.125z"/><path d="m9.79532362 0-.69939656 5.25529334-.43455156-2.85840318c-.12599425-.91558227-.24684587-1.71454565-.36255488-2.39689016h-3.92382062v11.25h2.65102169l.01028525-7.42887076 1.11594893 7.42887076h1.88734233l1.0593801-7.59263344.007714 7.59263344h2.6433077v-11.25z"/><g fill-rule="nonzero"><path d="m15 11.25v-11.25h4.8778491c1.102996 0 1.9971509.88746509 1.9971509 1.98537765v7.27924473c0 1.09649372-.8927114 1.98537762-1.9971509 1.98537762zm3.6451549-9.22529775c-.1239537-.06699382-.3610825-.09925011-.7059972-.09925011v7.38172692c.4553952 0 .7356383-.08188131.8407295-.25308775.1050912-.16872518.1589841-.62527568.1589841-1.374614v-4.36204237c0-.50865682-.0188626-.83370093-.0538929-.97761359-.0350304-.14391266-.1131751-.24812527-.2398235-.3151191z"/><path d="m27.7686924 2.81678639h.1997564c1.1219948 0 2.0315512.87863602 2.0315512 1.96125587v4.51070187c0 1.08317167-.9092615 1.96125587-2.0315512 1.96125587h-.1997564c-.6865288 0-1.2935208-.3289614-1.6612738-.8323288l-.1799835.6878154h-2.8024351v-11.1054866h2.9902039v3.61283473c.3863575-.48148636.9817657-.79604834 1.6534885-.79604834zm-.6402125 5.4858483v-2.66571085c0-.44046168-.0282756-.72951466-.0871833-.86257081-.0589076-.13305612-.294054-.21848328-.4589952-.21848328-.1649414 0-.4193055.06942637-.4687879.18642401v.89463008 2.75106685.86668356c.0565513.128468.2991339.19995444.4687879.19995444.1696539 0 .4165818-.06919238.4684205-.19995444.0518386-.13076206.077758-.44963794.077758-.95203956z"/></g></g></g></svg>