<svg height="20" viewBox="0 0 20 20" width="20" xmlns="http://www.w3.org/2000/svg" xmlns:xlink="http://www.w3.org/1999/xlink"><mask id="a" fill="#fff"><path d="m0 0h19.2706686v15.9104354h-19.2706686z" fill="#fff" fill-rule="evenodd"/></mask><g fill="none" fill-rule="evenodd"><path d="m19.2534167 6.71730665c-.1928631-3.10060262-1.7653942-5.42039597-4.1315353-6.71730665.013444.07555951-.0536099.17000889-.1299585.13655633-1.5476348-.67887054-4.173112 1.51818021-6.0078008.36764526.01377592.4129144-.066639 2.4271411-2.89626555 2.54397541-.06680498.00274609-.10356848-.06565691-.0613278-.11408821.37842322-.43280285.76049792-1.52858212.21112032-2.11275363-1.17651452 1.05716736-1.85975105 1.45501978-4.11560166.93001436-1.44431535 1.5143523-2.26273859 3.58699615-2.10207468 6.16891773.32780083 5.27069165 5.25120332 8.28350205 10.20912857 7.97327535 4.9575934-.309977 9.3521992-3.9055443 9.0243154-9.17623595" fill="#fa320a" mask="url(#a)" transform="translate(0 4.0896)"/><path d="m10.217898 2.82307957c1.0187552-.24348801 3.9490457-.02371636 4.8878838 1.22509585.0563486.07489379-.0229875.21660947-.1138589.17683255-1.5476348-.67887054-4.173112 1.51818021-6.0078008.36764526.01377592.41291441-.066639 2.42714109-2.89626555 2.54397539-.06680498.00274612-.10356848-.06565688-.0613278-.11408819.37842322-.43280284.76041492-1.52858213.21112032-2.11275362-1.28157677 1.15161674-1.97634855 1.52167525-4.75792531.76774449-.09103734-.02463174-.06-.17134034.03684647-.20837114.52572615-.20146429 1.71676349-1.08387949 2.84356847-1.47282788.21452282-.07397841.42838175-.13139697.63709542-.16476633-1.2406639-.11117564-1.799917-.28418028-2.58904563-.16484952-.08647303.01306481-.14522821-.08787539-.09161826-.15711052 1.06323652-1.37330234 3.02190872-1.78804747 4.23037344-1.05849881-.74489625-.92552073-1.32838175-1.66364057-1.32838175-1.66364057l1.38257263-.78746653s.57120332 1.27968511.98680497 2.21103092c1.02846473-1.52375563 2.94199168-1.66438952 3.75045638-.58325614.0479669.06424222-.0021576.15561263-.0822406.15369868-.6580083-.01606055-1.020332.5840883-1.0478008 1.0405243z" fill="#00912d"/></g></svg>